# xmcd
#
# Track frame offsets: 
#        182
#        19584
#        37833
#        55083
#        72942
#        91003
#        101935
#        122054
#        143411
#        165183
#        180177
#        196813
#        209240
#        228950
#        244535
#
# Disc length: 3719 seconds
#
# Revision: 0
# Processed by: cddbd v1.5.2PL0 Copyright (c) Steve Scherf et al.
# Submitted via: ExactAudioCopy v1.3
#
DISCID=b50e850f
DTITLE=Dirty Hands - Four Cool Cats
DYEAR=1995
DGENRE=Blues
TTITLE0=Your Mind Is Never Ok
TTITLE1=I Don't Feel The Same
TTITLE2=I'n't Gonna Knock
TTITLE3=96 Cadillac
TTITLE4=Let You Be
TTITLE5=Jack The Ripper
TTITLE6=Honey Bee (Acoustic)
TTITLE7=One More Nite
TTITLE8=You Gonna Miss Me
TTITLE9=Oopin' Doopin' Doopin'
TTITLE10=I Don't Know Why
TTITLE11=Juke Jump Boogie
TTITLE12=They Call Me Iceberg
TTITLE13=I Won't Cry
TTITLE14=Honey Bee
EXTD=
EXTT0=
EXTT1=
EXTT2=
EXTT3=
EXTT4=
EXTT5=
EXTT6=
EXTT7=
EXTT8=
EXTT9=
EXTT10=
EXTT11=
EXTT12=
EXTT13=
EXTT14=
PLAYORDER=
